# xmcd CD database file
#
# Track frame offsets:
#	150
#	16854
#	34101
#	50849
#	65754
#	85263
#	103257
#	121870
#	138273
#	155144
#	170346
#	187366
#	206359
#	224060
#	243551
#	261841
#	279783
#	300639
#	317092
#
# Disc length: 4395 seconds
#
# Revision: 1
# Processed by: cddbd v1.5.2PL0 Copyright (c) Steve Scherf et al.
# Submitted via: CDex 1.51
#
DISCID=1f112913
DTITLE=Various Artist - CDX 471
DYEAR=2009
DGENRE=Country
TTITLE0=Gaitlin and Will - Address In The Stars
TTITLE1=Kieth Urban - Kiss A Girl
TTITLE2=Toby Kieth - Lost You Anyway
TTITLE3=Jo Dee Messina - Shine
TTITLE4=Brad Paisley - Then
TTITLE5=Mark Wills - Entertaining Angels
TTITLE6=The Time Jumpers - All Of Me
TTITLE7=Heartland - I Loved Her First
TTITLE8=Kim McLean - Ain't No Glorie
TTITLE9=John Reinhardt - As Far As You Know
TTITLE10=Davisson Brothers Band - Big City Hillbilly
TTITLE11=Shawna Russell - Fire In The Desert
TTITLE12=Brett Daniels - Her Last Goodbye
TTITLE13=Megan Morrison - I Can Love Anyone I Want To
TTITLE14=Due West - I Get That All The Time
TTITLE15=Telluride - Pencil Marks
TTITLE16=Dale Oakley - That's My Mom
TTITLE17=Grandstaff - The Statler Brothers Song
TTITLE18=Stepen Cochran - Wal-Mart Flowers
EXTD=YEAR: 2009
EXTT0=
EXTT1=
EXTT2=
EXTT3=
EXTT4=
EXTT5=
EXTT6=
EXTT7=
EXTT8=
EXTT9=
EXTT10=
EXTT11=
EXTT12=
EXTT13=
EXTT14=
EXTT15=
EXTT16=
EXTT17=
EXTT18=
PLAYORDER=
